<svg width="116" height="116" xmlns="http://www.w3.org/2000/svg" xmlns:xlink="http://www.w3.org/1999/xlink" overflow="hidden"><defs><clipPath id="clip0"><path d="M254 2 370 2 370 118 254 118Z" fill-rule="evenodd" clip-rule="evenodd"/></clipPath><clipPath id="clip1"><path d="M264 12 360 12 360 108 264 108Z" fill-rule="evenodd" clip-rule="evenodd"/></clipPath><clipPath id="clip2"><path d="M264 12 360 12 360 108 264 108Z" fill-rule="evenodd" clip-rule="evenodd"/></clipPath><clipPath id="clip3"><path d="M264 12 360 12 360 108 264 108Z" fill-rule="evenodd" clip-rule="evenodd"/></clipPath></defs><g clip-path="url(#clip0)" transform="translate(-254 -2)"><g clip-path="url(#clip1)"><g clip-path="url(#clip2)"><g clip-path="url(#clip3)"><path d="M268 57 286 57 286 63 268 63Z" fill="#FFFFFF"/><path d="M338 57 356 57 356 63 338 63Z" fill="#FFFFFF"/><path d="M334 60C334 72.1503 324.15 82 312 82 299.85 82 290 72.1503 290 60 290 47.8497 299.85 38 312 38 324.15 38 334 47.8497 334 60Z" fill="#FFFFFF"/><path d="M309 86 315 86 315 104 309 104Z" fill="#FFFFFF"/><path d="M309 16 315 16 315 34 309 34Z" fill="#FFFFFF"/><path d="M295.687 80.4537 282.96 93.1815 278.717 88.9389 291.445 76.2111Z" fill="#FFFFFF"/><path d="M345.283 31.0586 332.555 43.7864 328.312 39.5438 341.04 26.816Z" fill="#FFFFFF"/><path d="M295.785 39.4455 291.542 43.6881 278.815 30.9603 283.057 26.7177Z" fill="#FFFFFF"/><path d="M345.184 89.0381 340.941 93.2807 328.213 80.5529 332.456 76.3103Z" fill="#FFFFFF"/></g></g></g><path d="M345 23C345 20.2386 347.239 18 350 18 352.761 18 355 20.2386 355 23 355 25.7614 352.761 28 350 28 347.239 28 345 25.7614 345 23Z" fill="#FFFFFF" fill-rule="evenodd"/><path d="M360 60C360 57.2386 362.239 55 365 55 367.761 55 370 57.2386 370 60 370 62.7614 367.761 65 365 65 362.239 65 360 62.7614 360 60Z" fill="#FFFFFF" fill-rule="evenodd"/><path d="M345 97C345 94.2386 347.239 92 350 92 352.761 92 355 94.2386 355 97 355 99.7614 352.761 102 350 102 347.239 102 345 99.7614 345 97Z" fill="#FFFFFF" fill-rule="evenodd"/><path d="M307 113C307 110.239 309.239 108 312 108 314.761 108 317 110.239 317 113 317 115.761 314.761 118 312 118 309.239 118 307 115.761 307 113Z" fill="#FFFFFF" fill-rule="evenodd"/><path d="M269 97C269 94.2386 271.239 92 274 92 276.761 92 279 94.2386 279 97 279 99.7614 276.761 102 274 102 271.239 102 269 99.7614 269 97Z" fill="#FFFFFF" fill-rule="evenodd"/><path d="M254 60C254 57.2386 256.239 55 259 55 261.761 55 264 57.2386 264 60 264 62.7614 261.761 65 259 65 256.239 65 254 62.7614 254 60Z" fill="#FFFFFF" fill-rule="evenodd"/><path d="M270 23C270 20.2386 272.015 18 274.5 18 276.985 18 279 20.2386 279 23 279 25.7614 276.985 28 274.5 28 272.015 28 270 25.7614 270 23Z" fill="#FFFFFF" fill-rule="evenodd"/><path d="M307 7C307 4.23858 309.239 2 312 2 314.761 2 317 4.23858 317 7 317 9.76142 314.761 12 312 12 309.239 12 307 9.76142 307 7Z" fill="#FFFFFF" fill-rule="evenodd"/></g></svg>